<svg xmlns="http://www.w3.org/2000/svg" xmlns:xlink="http://www.w3.org/1999/xlink" version="1.1" x="0px" y="0px" viewBox="0 0 1000 1000" enable-background="new 0 0 1000 1000" xml:space="preserve">
<metadata> Svg Vector Icons : http://www.onlinewebfonts.com/icon </metadata>
<g><g transform="translate(0.000000,511.000000) scale(0.100000,-0.100000)"><path d="M4502.7,4986.9c-911.2-94.2-1813.7-464.4-2549.6-1044.8c-199.3-155.5-628.7-584.8-784.2-784.2C476.8,2281.7,100,1201.9,100,104.5c0-2216.7,1515.8-4181.5,3658-4740c468.7-122.7,733.8-155.5,1259.5-153.3c521.3,0,757.9,28.5,1237.6,153.3c1697.6,442.5,3049.1,1793.9,3491.5,3491.5c124.8,479.7,153.3,716.3,153.3,1237.6c2.2,525.7-30.7,790.7-153.3,1259.5c-562.9,2159.7-2549.6,3677.7-4781.7,3655.8C4813.8,5006.6,4605.7,4995.6,4502.7,4986.9z M5674.6,4257.5c1375.6-230,2516.8-1084.2,3119.2-2335c554.2-1150,556.3-2486.1,2.2-3633.9c-339.5-700.9-819.2-1255.1-1456.6-1680c-1242-825.8-2814.7-935.3-4150.8-291.3C1918-3069.4,1070.3-1919.5,842.5-497.9c-41.6,256.3-37.2,998.8,8.8,1259.5c230,1338.3,1005.4,2422.6,2183.8,3060c381.1,205.9,950.6,389.9,1371.2,442.5c107.3,13.1,225.6,28.5,260.7,32.9C4802.8,4316.6,5484,4288.1,5674.6,4257.5z"/><path d="M5582.6,472.4L3955.1-1155l-573.9,573.9L2805.2-7.3L2553.3-246l-251.9-238.8l828-828l825.8-828L5832.3-263.5l1879.4,1879.4l-240.9,240.9c-131.4,131.4-245.3,240.9-251.9,240.9S6476.3,1366.1,5582.6,472.4z"/></g></g>
</svg>